<svg width="128" height="128" viewBox="0 0 128 128" fill="none" xmlns="http://www.w3.org/2000/svg">
<g clip-path="url(#clip0_4945_2245)">
<path d="M120.02 21.6V44C120.02 47.09 117.51 49.6 114.42 49.6H102.25C101.7 49.6 101.17 49.82 100.77 50.21L90.55 60.43C89.95 61.03 88.97 61.03 88.37 60.43L78.15 50.21C77.76 49.82 77.23 49.6 76.67 49.6H64.5C61.41 49.6 58.9 47.09 58.9 44V21.59C58.9 18.5 61.4 16 64.49 16H114.42C117.51 16 120.02 18.51 120.02 21.6Z" stroke="#76747A" stroke-width="2"/>
<path d="M74.71 22.79H112.64" stroke="#76747A" stroke-width="2"/>
<path d="M77.89 29.51H112.64" stroke="#76747A" stroke-width="2"/>
<path d="M77.89 36.22H112.64" stroke="#76747A" stroke-width="2"/>
<path d="M77.89 42.9399H98.38" stroke="#76747A" stroke-width="2"/>
<path d="M40.72 75.86C40.72 68.65 35.05 62.98 28.27 62.98C21.06 62.98 15.39 68.65 15.39 75.86C15.39 82.64 21.06 88.31 28.27 88.31C35.05 88.31 40.72 82.64 40.72 75.86Z" stroke="#FD5F07" stroke-width="2" stroke-linejoin="round"/>
<path d="M48.11 111.53V101.6C48.11 98.2801 43.8 88.3101 28.2 88.3101C12.6 88.3101 8 98.2801 8 101.6V111.53H48.11Z" stroke="#FD5F07" stroke-width="2" stroke-linejoin="round"/>
<path d="M110.61 75.86C110.61 68.65 104.94 62.98 98.16 62.98C90.95 62.98 85.28 68.65 85.28 75.86C85.28 82.64 90.95 88.31 98.16 88.31C104.94 88.31 110.61 82.64 110.61 75.86Z" stroke="#FD5F07" stroke-width="2" stroke-linejoin="round"/>
<path d="M118 111.53V101.6C118 98.2801 113.69 88.3101 98.09 88.3101C82.49 88.3101 77.89 98.2801 77.89 101.6V111.53H118Z" stroke="#FD5F07" stroke-width="2" stroke-linejoin="round"/>
<path d="M72.26 30.9601V51.0701C72.26 53.8401 70.01 56.0901 67.24 56.0901H56.32C55.82 56.0901 55.35 56.2901 55 56.6401L45.82 65.8201C45.28 66.3601 44.4 66.3601 43.86 65.8201L34.68 56.6401C34.33 56.2901 33.85 56.0901 33.36 56.0901H22.44C19.67 56.0901 17.42 53.8401 17.42 51.0701V30.9501C17.42 28.1801 19.67 25.9301 22.44 25.9301H67.26C70.03 25.9301 72.28 28.1801 72.28 30.9501L72.26 30.9601Z" stroke="#76747A" stroke-width="2"/>
<path d="M24.03 32.03H53.62" stroke="#76747A" stroke-width="2"/>
<path d="M24.03 38.0601H53.62" stroke="#76747A" stroke-width="2"/>
<path d="M24.03 44.0901H53.62" stroke="#76747A" stroke-width="2"/>
<path d="M24.03 50.1201H48.56" stroke="#76747A" stroke-width="2"/>
</g>
<defs>
<clipPath id="clip0_4945_2245">
<rect width="114.02" height="97.53" fill="white" transform="translate(7 15)"/>
</clipPath>
</defs>
</svg>
